<?xml version="1.0" encoding="UTF-8"?>
<svg version="1.1" xmlns="http://www.w3.org/2000/svg" width="811" height="325">
<path d="M0 0 C267.63 0 535.26 0 811 0 C811 107.25 811 214.5 811 325 C543.37 325 275.74 325 0 325 C0 217.75 0 110.5 0 0 Z " fill="#010101" transform="translate(0,0)"/>
<path d="M0 0 C23 0 23 0 29.5 5 C31.05502099 6.95752643 32.56106474 8.95562594 34 11 C35.19248593 12.36814257 36.39925445 13.72407381 37.625 15.0625 C38.16898438 15.69800781 38.71296875 16.33351563 39.2734375 16.98828125 C47.22928171 26.25809973 55.62501045 35.16188004 63.8984375 44.1484375 C68.33944972 48.97661101 72.74915246 53.82190896 77.03515625 58.7890625 C78.6843839 60.64485346 80.35994172 62.46325522 82.05859375 64.2734375 C82.60394775 64.85617432 83.14930176 65.43891113 83.71118164 66.03930664 C84.80388869 67.20384535 85.90061887 68.36462464 87.00170898 69.52124023 C89.32337492 71.99785773 90.91313372 73.73940117 92 77 C92.66 77 93.32 77 94 77 C94 51.59 94 26.18 94 0 C102.91 0 111.82 0 121 0 C121 40.59 121 81.18 121 123 C98 123 98 123 89.5 115.5 C86.15625 111.28125 86.15625 111.28125 84.59375 109.13867188 C80.47164213 103.60716683 75.65392737 98.58257858 71 93.5 C68.17422616 90.40268033 65.36781221 87.2959585 62.625 84.125 C59.02087859 79.97686027 55.28424375 75.95561762 51.55004883 71.92504883 C46.98396708 66.99350924 42.48530251 62.00533758 38 57 C35.03 53.7 32.06 50.4 29 47 C28.67 72.08 28.34 97.16 28 123 C18.76 123 9.52 123 0 123 C0 82.41 0 41.82 0 0 Z " fill="#F9F9F9" transform="translate(481,104)"/>
<path d="M0 0 C0.77338431 0.00092179 1.54676863 0.00184359 2.34358883 0.00279331 C3.22844967 0.00141865 4.11331051 0.00004398 5.02498531 -0.00137234 C6.00321758 0.00222294 6.98144985 0.00581821 7.98932552 0.00952244 C9.01359646 0.00937641 10.03786739 0.00923038 11.09317684 0.00907993 C14.49665055 0.00977955 17.9000703 0.0175742 21.30353451 0.02539158 C23.65623094 0.02725559 26.00892776 0.02867957 28.36162472 0.0296793 C34.56769531 0.03350584 40.77374266 0.04333728 46.97980404 0.05438328 C53.30711204 0.06459448 59.63442378 0.06917629 65.96173763 0.0742197 C78.38687972 0.08495943 90.81199842 0.10255732 103.23712826 0.12304783 C103.23712826 7.38304783 103.23712826 14.64304783 103.23712826 22.12304783 C73.20712826 22.12304783 43.17712826 22.12304783 12.23712826 22.12304783 C12.23712826 30.70304783 12.23712826 39.28304783 12.23712826 48.12304783 C37.64712826 48.12304783 63.05712826 48.12304783 89.23712826 48.12304783 C89.23712826 54.72304783 89.23712826 61.32304783 89.23712826 68.12304783 C63.82712826 68.12304783 38.41712826 68.12304783 12.23712826 68.12304783 C12.23712826 79.01304783 12.23712826 89.90304783 12.23712826 101.12304783 C42.59712826 101.12304783 72.95712826 101.12304783 104.23712826 101.12304783 C104.23712826 108.38304783 104.23712826 115.64304783 104.23712826 123.12304783 C63.97712826 123.12304783 23.71712826 123.12304783 -17.76287174 123.12304783 C-18.07224674 107.81929783 -18.38162174 92.51554783 -18.70037174 76.74804783 C-18.8369318 71.97287693 -18.97349186 67.19770603 -19.1141901 62.27783298 C-19.50426748 38.41608686 -18.92146786 19.87841497 -2.76287174 1.12304783 C-1.76287174 0.12304783 -1.76287174 0.12304783 0 0 Z " fill="#FBFBFB" transform="translate(366.76287174224854,103.87695217132568)"/>
<path d="M0 0 C17.49 -0.268125 34.98 -0.53625 53 -0.8125 C61.26998047 -0.99002808 61.26998047 -0.99002808 69.70703125 -1.17114258 C76.46289063 -1.2298584 76.46289063 -1.2298584 79.63012695 -1.24076843 C81.83262306 -1.26067496 84.03498112 -1.3062874 86.23657227 -1.3724823 C104.230842 -1.88625668 104.230842 -1.88625668 108.75140381 1.19299698 C112.03609046 4.61030131 113.56185029 8.56479119 115 13 C115.99 15.97 116.98 18.94 118 22 C88.96 22 59.92 22 30 22 C30 30.58 30 39.16 30 48 C55.08 48 80.16 48 106 48 C106 54.6 106 61.2 106 68 C80.59 68 55.18 68 29 68 C29 78.89 29 89.78 29 101 C59.03 101 89.06 101 120 101 C120 107.93 120 114.86 120 122 C80.4 122 40.8 122 0 122 C0 81.74 0 41.48 0 0 Z " fill="#FCFCFC" transform="translate(84,104)"/>
<path d="M0 0 C4.4470421 -0.24828873 8.89036894 -0.42909832 13.34228516 -0.54931641 C14.85406764 -0.59943968 16.36536913 -0.66756841 17.87548828 -0.75439453 C30.33688848 -1.45262724 30.33688848 -1.45262724 34.1315918 1.86181641 C35.72812753 4.50245336 36.85616686 7.13564719 38 10 C39.05896901 11.9232116 40.1444069 13.83205216 41.25390625 15.7265625 C42.91649893 18.68578071 44.5749654 21.64727735 46.23242188 24.609375 C49.04433899 29.61278623 51.89057399 34.52013654 55.13256836 39.25927734 C56 41 56 41 56 45 C56.66 45 57.32 45 58 45 C63.28 54.57 68.56 64.14 74 74 C78.72346513 66.96820044 78.72346513 66.96820044 83.12109375 59.78515625 C83.65645752 58.86468506 84.19182129 57.94421387 84.7434082 56.99584961 C85.3024585 56.02784424 85.86150879 55.05983887 86.4375 54.0625 C87.0358667 53.0319751 87.6342334 52.0014502 88.25073242 50.93969727 C92.14184745 44.23207921 96.01673985 37.51504031 99.87475586 30.78833008 C101.16177413 28.56276302 102.46462027 26.34627087 103.78344727 24.1394043 C106.9151488 18.86866571 109.70923805 13.94334518 111.34008789 8.00756836 C112.94586509 4.69865969 115.04121329 2.14537566 118 0 C120.89557236 -0.63161964 122.99679452 -0.89848118 125.88671875 -0.89453125 C126.62168076 -0.91447647 127.35664276 -0.93442169 128.11387634 -0.95497131 C135.7588911 -1.09721102 143.38444135 -0.62802755 151 0 C150.67 1.32 150.34 2.64 150 4 C149.34 4 148.68 4 148 4 C147.7210791 4.7307373 147.4421582 5.46147461 147.15478516 6.21435547 C146.08616426 8.79214921 144.89425801 11.14289235 143.5234375 13.5703125 C143.02602051 14.45243408 142.52860352 15.33455566 142.01611328 16.2434082 C141.20376221 17.66979614 141.20376221 17.66979614 140.375 19.125 C139.80378418 20.13199951 139.23256836 21.13899902 138.64404297 22.17651367 C133.56454895 31.09055447 128.33887932 39.91529552 123.08984375 48.73022461 C118.4580597 56.51536355 113.89169629 64.33506228 109.375 72.1875 C98.05231071 91.8718561 86.57794803 111.46475938 75 131 C71.6509151 127.95182203 69.59760104 124.84511707 67.43359375 120.87890625 C67.11342789 120.2971312 66.79326202 119.71535614 66.46339417 119.11595154 C65.44825294 117.26827963 64.44262078 115.41563865 63.4375 113.5625 C62.4267648 111.71411228 61.41410256 109.86679312 60.40089417 108.01976013 C59.48210431 106.34246463 58.56794798 104.66263342 57.65405273 102.98266602 C56.57695037 101.04038415 55.45558784 99.12179335 54.28540039 97.23413086 C53 95 53 95 53 93 C52.34 93 51.68 93 51 93 C50.45279297 91.61941406 50.45279297 91.61941406 49.89453125 90.2109375 C47.57007894 84.79760658 44.59152447 79.74273174 41.6875 74.625 C40.42176363 72.38027113 39.15614183 70.13547765 37.890625 67.890625 C37.24416016 66.74658203 36.59769531 65.60253906 35.93164062 64.42382812 C33.50098337 60.11549429 31.08634167 55.79832786 28.6730957 51.48022461 C23.46626623 42.16447499 18.24183482 32.85859603 13 23.5625 C12.22644165 22.18747314 12.22644165 22.18747314 11.43725586 20.78466797 C8.45211905 15.49859956 5.3812321 10.27938057 2.19921875 5.10913086 C1 3 1 3 0 0 Z " fill="#FAFAFA" transform="translate(204,104)"/>
<path d="M0 0 C44.22 0 88.44 0 134 0 C134 7.59 134 15.18 134 23 C116.51 23 99.02 23 81 23 C81 56 81 89 81 123 C71.76 123 62.52 123 53 123 C53 90 53 57 53 23 C35.51 23 18.02 23 0 23 C0 15.41 0 7.82 0 0 Z " fill="#F5F5F5" transform="translate(612,104)"/>
<path d="M0 0 C34.65 0 69.3 0 105 0 C105 0.33 105 0.66 105 1 C103.07440498 1.0154612 103.07440498 1.0154612 101.10990906 1.03123474 C89.02883969 1.12886981 76.94782297 1.23159446 64.86683941 1.33933926 C58.6554665 1.39457108 52.44408888 1.44799157 46.23266602 1.49731445 C40.24152774 1.54495408 34.25044753 1.59729686 28.25937843 1.65294075 C25.97039035 1.6733661 23.68138634 1.69207888 21.39237022 1.70907402 C18.19340619 1.73311391 14.99455225 1.76316924 11.7956543 1.79467773 C10.84331406 1.8004332 9.89097382 1.80618866 8.90977478 1.81211853 C7.60360199 1.82680176 7.60360199 1.82680176 6.27104187 1.84178162 C5.51424983 1.84823417 4.75745779 1.85468672 3.97773266 1.8613348 C1.78771907 1.93237086 1.78771907 1.93237086 -1 3 C-0.67 2.01 -0.34 1.02 0 0 Z " fill="#BABABA" transform="translate(365,104)"/>
</svg>
