<?xml version="1.0" encoding="utf-8"?>
<!-- Generator: Adobe Illustrator 16.0.0, SVG Export Plug-In . SVG Version: 6.00 Build 0)  -->
<!DOCTYPE svg PUBLIC "-//W3C//DTD SVG 1.1//EN" "http://www.w3.org/Graphics/SVG/1.1/DTD/svg11.dtd">
<svg version="1.1" id="Layer_1" xmlns="http://www.w3.org/2000/svg" xmlns:xlink="http://www.w3.org/1999/xlink" x="0px" y="0px"
	 width="1000px" height="300.564px" viewBox="0 0 1000 300.564" enable-background="new 0 0 1000 300.564" xml:space="preserve">
<g>
	<rect y="87.073" fill="#EC2427" width="42.123" height="42.143"/>
	<rect y="0.02" fill="#EC2427" width="42.123" height="42.123"/>
	<rect y="174.195" fill="#EC2427" width="42.123" height="42.083"/>
	<rect y="258.441" fill="#EC2427" width="42.123" height="42.123"/>
	<polygon fill="#EC2427" points="572.56,0 547.099,105.706 521.181,0 450.591,0 511.208,176.743 511.208,300.564 584.245,300.564 
		584.245,176.743 643.468,0 	"/>
	<polygon fill="#EC2427" points="660.11,0 660.11,61.791 707.867,61.791 707.867,300.564 778.079,300.564 778.079,61.791 
		825.835,61.791 825.835,0 	"/>
	<path fill="#EC2427" d="M943.803,129.275c-21.917-20.684-39.315-32.249-39.315-55.042v-5.634c0-7.246,5.594-12.422,12.7-12.422
		h8.241c7.127,0,12.76,5.176,12.76,12.422v26.894h59.004V60.895C997.192,28.009,969.363,0,936.437,0h-36.25
		c-32.886,0-60.317,28.009-60.317,60.895v21.559c0,39.137,30.757,67.504,56.675,89.074c21.42,19.787,38.838,34.797,38.838,55.021
		v8.322c0,7.126-5.514,12.302-12.501,12.302h-13.338c-7.106,0-13.497-5.176-13.497-12.302v-29.82h-56.177v36.27
		c0,32.807,25.739,59.243,58.646,59.243h41.367c32.926,0,60.118-26.437,60.118-59.243v-20.742
		C1000,180.087,970.478,152.944,943.803,129.275"/>
	<polygon fill="#EC2427" points="182.565,126.409 146.056,126.409 146.056,0 78.632,0 78.632,300.564 146.056,300.564 
		146.056,185.383 182.565,185.383 182.565,300.564 252.777,300.564 252.777,0 182.565,0 	"/>
	<path fill="#EC2427" d="M446.61,241.321V60.895C446.61,27.989,419.178,0,386.372,0h-47.139c-32.787,0-58.347,27.989-58.347,60.895
		v180.426c0,32.807,25.561,59.243,58.347,59.243h47.139C419.178,300.564,446.61,274.127,446.61,241.321 M379.185,233.875
		c0,7.127-6.688,13.298-13.935,13.298h-4.897c-7.107,0-12.064-6.171-12.064-13.298V68.579c0-7.246,4.957-12.422,12.064-12.422h4.897
		c7.246,0,13.935,5.176,13.935,12.422V233.875z"/>
</g>
</svg>
