<svg xmlns="http://www.w3.org/2000/svg" xmlns:xlink="http://www.w3.org/1999/xlink" width="1587" zoomAndPan="magnify" viewBox="0 0 1190.25 1683.749949" height="2245" preserveAspectRatio="xMidYMid meet" version="1.0"><defs><clipPath id="7b1ef6bbce"><path d="M 73 0.40625 L 1162 0.40625 L 1162 1683.09375 L 73 1683.09375 Z M 73 0.40625 " clip-rule="nonzero"/></clipPath><clipPath id="6e9647b85e"><path d="M 2 69.460938 L 1084.605469 69.460938 L 1084.605469 591 L 2 591 Z M 2 69.460938 " clip-rule="nonzero"/></clipPath><clipPath id="a9d54161fc"><path d="M 73 196 L 1014 196 L 1014 591 L 73 591 Z M 73 196 " clip-rule="nonzero"/></clipPath><clipPath id="e07a62fa7d"><path d="M 2 488.207031 L 1084.601562 488.207031 L 1084.601562 1565.753906 L 2 1565.753906 Z M 2 488.207031 " clip-rule="nonzero"/></clipPath><clipPath id="f96044f852"><path d="M 73 488.207031 L 1013 488.207031 L 1013 1439 L 73 1439 Z M 73 488.207031 " clip-rule="nonzero"/></clipPath><clipPath id="81acb6d47d"><path d="M 482 523.535156 L 664 523.535156 L 664 705 L 482 705 Z M 482 523.535156 " clip-rule="nonzero"/></clipPath><clipPath id="25610c3d76"><path d="M 284 1044 L 475 1044 L 475 1143.988281 L 284 1143.988281 Z M 284 1044 " clip-rule="nonzero"/></clipPath><clipPath id="4bb25f06be"><path d="M 489 1032 L 521 1032 L 521 1143.988281 L 489 1143.988281 Z M 489 1032 " clip-rule="nonzero"/></clipPath><clipPath id="aeed8428d9"><path d="M 536 1048 L 727 1048 L 727 1143.988281 L 536 1143.988281 Z M 536 1048 " clip-rule="nonzero"/></clipPath><clipPath id="47532d1c34"><path d="M 188 1240.226562 L 197 1240.226562 L 197 1368.363281 L 188 1368.363281 Z M 188 1240.226562 " clip-rule="nonzero"/></clipPath><clipPath id="822b0d06b5"><path d="M 218 1240.226562 L 239 1240.226562 L 239 1368.363281 L 218 1368.363281 Z M 218 1240.226562 " clip-rule="nonzero"/></clipPath><clipPath id="7e0cebaea5"><path d="M 290 1240.226562 L 311 1240.226562 L 311 1368.363281 L 290 1368.363281 Z M 290 1240.226562 " clip-rule="nonzero"/></clipPath><clipPath id="3f5210178a"><path d="M 362 1240.226562 L 383 1240.226562 L 383 1368.363281 L 362 1368.363281 Z M 362 1240.226562 " clip-rule="nonzero"/></clipPath><clipPath id="49d0dc29ca"><path d="M 434 1240.226562 L 455 1240.226562 L 455 1368.363281 L 434 1368.363281 Z M 434 1240.226562 " clip-rule="nonzero"/></clipPath><clipPath id="d22fa25d66"><path d="M 506 1240.226562 L 527 1240.226562 L 527 1368.363281 L 506 1368.363281 Z M 506 1240.226562 " clip-rule="nonzero"/></clipPath><clipPath id="ae442874f9"><path d="M 578 1240.226562 L 600 1240.226562 L 600 1368.363281 L 578 1368.363281 Z M 578 1240.226562 " clip-rule="nonzero"/></clipPath><clipPath id="ed17168cbd"><path d="M 257 1240.226562 L 272 1240.226562 L 272 1368.363281 L 257 1368.363281 Z M 257 1240.226562 " clip-rule="nonzero"/></clipPath><clipPath id="e2ed4c1045"><path d="M 329 1240.226562 L 344 1240.226562 L 344 1368.363281 L 329 1368.363281 Z M 329 1240.226562 " clip-rule="nonzero"/></clipPath><clipPath id="4b39a12da0"><path d="M 401 1240.226562 L 416 1240.226562 L 416 1368.363281 L 401 1368.363281 Z M 401 1240.226562 " clip-rule="nonzero"/></clipPath><clipPath id="c9ae0d2774"><path d="M 473 1240.226562 L 488 1240.226562 L 488 1368.363281 L 473 1368.363281 Z M 473 1240.226562 " clip-rule="nonzero"/></clipPath><clipPath id="62eb4fa4ba"><path d="M 548 1240.226562 L 558 1240.226562 L 558 1368.363281 L 548 1368.363281 Z M 548 1240.226562 " clip-rule="nonzero"/></clipPath><clipPath id="6c47fbaae4"><path d="M 618 1240.226562 L 632 1240.226562 L 632 1368.363281 L 618 1368.363281 Z M 618 1240.226562 " clip-rule="nonzero"/></clipPath><clipPath id="42c4e4d094"><path d="M 661 1240.226562 L 670 1240.226562 L 670 1368.363281 L 661 1368.363281 Z M 661 1240.226562 " clip-rule="nonzero"/></clipPath><clipPath id="033b3be933"><path d="M 691 1240.226562 L 712 1240.226562 L 712 1368.363281 L 691 1368.363281 Z M 691 1240.226562 " clip-rule="nonzero"/></clipPath><clipPath id="41601270e4"><path d="M 763 1240.226562 L 784 1240.226562 L 784 1368.363281 L 763 1368.363281 Z M 763 1240.226562 " clip-rule="nonzero"/></clipPath><clipPath id="c433642368"><path d="M 835 1240.226562 L 856 1240.226562 L 856 1368.363281 L 835 1368.363281 Z M 835 1240.226562 " clip-rule="nonzero"/></clipPath><clipPath id="2e2e58d966"><path d="M 730 1240.226562 L 745 1240.226562 L 745 1368.363281 L 730 1368.363281 Z M 730 1240.226562 " clip-rule="nonzero"/></clipPath><clipPath id="730163004a"><path d="M 802 1240.226562 L 817 1240.226562 L 817 1368.363281 L 802 1368.363281 Z M 802 1240.226562 " clip-rule="nonzero"/></clipPath><clipPath id="f473998098"><path d="M 874 1240.226562 L 889 1240.226562 L 889 1368.363281 L 874 1368.363281 Z M 874 1240.226562 " clip-rule="nonzero"/></clipPath><clipPath id="ed8da302b2"><rect x="0" width="1089" y="0" height="1684"/></clipPath></defs><g clip-path="url(#7b1ef6bbce)"><g transform="matrix(1, 0, 0, 1, 73, 0.000000000000081102)"><g clip-path="url(#ed8da302b2)"><g clip-path="url(#6e9647b85e)"><path fill="#eea42b" d="M 1084.121094 195.132812 L 1084.121094 2045.117188 C 1073.132812 2041.929688 1061.542969 2040.21875 1049.519531 2040.21875 C 981.066406 2040.21875 925.597656 2095.6875 925.597656 2164.140625 C 925.597656 2168.042969 925.757812 2171.863281 926.113281 2175.6875 L 858.339844 2175.6875 C 858.339844 2142.238281 831.222656 2115.160156 797.773438 2115.160156 C 764.363281 2115.160156 737.246094 2142.238281 737.246094 2175.6875 L 683.449219 2175.6875 C 683.449219 2142.238281 656.332031 2115.160156 622.921875 2115.160156 C 589.472656 2115.160156 562.394531 2142.238281 562.394531 2175.6875 L 508.554688 2175.6875 C 508.554688 2142.238281 481.476562 2115.160156 448.027344 2115.160156 C 414.578125 2115.160156 387.503906 2142.238281 387.503906 2175.6875 L 333.703125 2175.6875 C 333.703125 2142.238281 306.585938 2115.160156 273.136719 2115.160156 C 239.726562 2115.160156 212.609375 2142.238281 212.609375 2175.6875 L 160.207031 2175.6875 C 160.523438 2171.863281 160.722656 2168.042969 160.722656 2164.140625 C 160.722656 2095.6875 105.253906 2040.21875 36.761719 2040.21875 C 24.777344 2040.21875 13.148438 2041.929688 2.199219 2045.117188 L 2.199219 195.132812 C 13.148438 198.320312 24.777344 200.03125 36.761719 200.03125 C 105.253906 200.03125 160.722656 144.523438 160.722656 76.070312 C 160.722656 73.839844 160.683594 71.648438 160.566406 69.460938 L 212.609375 69.460938 C 212.609375 102.910156 239.726562 129.988281 273.136719 129.988281 C 306.585938 129.988281 333.703125 102.910156 333.703125 69.460938 L 387.503906 69.460938 C 387.503906 102.910156 414.582031 129.988281 448.03125 129.988281 C 481.480469 129.988281 508.554688 102.910156 508.554688 69.460938 L 562.394531 69.460938 C 562.394531 102.910156 589.472656 129.988281 622.921875 129.988281 C 656.332031 129.988281 683.449219 102.910156 683.449219 69.460938 L 737.246094 69.460938 C 737.246094 102.910156 764.363281 129.988281 797.773438 129.988281 C 831.222656 129.988281 858.339844 102.910156 858.339844 69.460938 L 925.757812 69.460938 C 925.636719 71.648438 925.597656 73.839844 925.597656 76.070312 C 925.597656 144.523438 981.066406 200.03125 1049.519531 200.03125 C 1061.542969 200.03125 1073.132812 198.320312 1084.121094 195.132812 Z M 1084.121094 195.132812 " fill-opacity="1" fill-rule="evenodd"/></g><g clip-path="url(#a9d54161fc)"><path fill="#000000" d="M 196.523438 215.523438 C 187.203125 238.101562 173.070312 258.449219 155.347656 275.453125 C 137.589844 292.414062 116.246094 305.992188 92.511719 315.074219 L 92.511719 1939.988281 C 114.375 1948.351562 134.203125 1960.539062 151.085938 1975.667969 C 168.089844 1990.921875 182.066406 2009.238281 192.0625 2029.625 L 896.566406 2029.625 C 906.363281 2009.554688 920.023438 1991.558594 936.585938 1976.503906 C 953.035156 1961.53125 972.386719 1949.386719 993.808594 1940.90625 L 993.808594 314.15625 C 970.554688 304.957031 949.6875 291.378906 932.328125 274.574219 C 915.042969 257.8125 901.226562 237.742188 892.066406 215.523438 Z M 142.128906 261.632812 C 159.371094 245.109375 172.789062 225 180.992188 202.621094 L 183.300781 196.289062 L 905.289062 196.289062 L 907.597656 202.621094 C 915.683594 224.640625 928.78125 244.429688 945.707031 260.835938 C 962.628906 277.285156 983.375 290.226562 1006.59375 298.507812 L 1013.003906 300.777344 L 1013.003906 1954.285156 L 1006.59375 1956.554688 C 985.089844 1964.199219 965.695312 1975.90625 949.488281 1990.679688 C 933.242188 2005.496094 920.179688 2023.292969 911.382812 2043.085938 L 908.832031 2048.859375 L 179.796875 2048.859375 L 177.25 2043.085938 C 168.25 2022.894531 154.910156 2004.816406 138.304688 1989.925781 C 121.738281 1975.03125 101.871094 1963.324219 79.808594 1955.796875 L 73.277344 1953.570312 L 73.277344 301.496094 L 79.808594 299.265625 C 103.582031 291.179688 124.804688 278.199219 142.128906 261.632812 Z M 142.128906 261.632812 " fill-opacity="1" fill-rule="nonzero"/></g><path fill="#000000" d="M 82.914062 469.179688 L 142.527344 469.179688 L 142.527344 453.808594 L 82.914062 453.808594 Z M 188.636719 469.179688 L 188.636719 453.808594 L 265.492188 453.808594 L 265.492188 469.179688 Z M 311.605469 469.179688 L 311.605469 453.808594 L 388.496094 453.808594 L 388.496094 469.179688 Z M 434.609375 469.179688 L 434.609375 453.808594 L 511.464844 453.808594 L 511.464844 469.179688 Z M 557.574219 469.179688 L 557.574219 453.808594 L 634.46875 453.808594 L 634.46875 469.179688 Z M 680.582031 469.179688 L 680.582031 453.808594 L 757.433594 453.808594 L 757.433594 469.179688 Z M 803.546875 469.179688 L 803.546875 453.808594 L 880.441406 453.808594 L 880.441406 469.179688 Z M 926.554688 469.179688 L 926.554688 453.808594 L 1003.40625 453.808594 L 1003.40625 469.179688 Z M 926.554688 469.179688 " fill-opacity="1" fill-rule="nonzero"/><path fill="#000000" d="M 538.78125 263.546875 L 556.101562 317.222656 L 612.527344 317.144531 L 566.8125 350.195312 L 584.335938 403.832031 L 538.78125 370.582031 L 493.1875 403.832031 L 510.707031 350.195312 L 465.03125 317.144531 L 521.417969 317.222656 Z M 538.78125 263.546875 " fill-opacity="1" fill-rule="evenodd"/><path fill="#000000" d="M 733.503906 263.546875 L 750.824219 317.222656 L 807.25 317.144531 L 761.535156 350.195312 L 779.058594 403.832031 L 733.503906 370.582031 L 687.910156 403.832031 L 705.429688 350.195312 L 659.714844 317.144531 L 716.140625 317.222656 Z M 733.503906 263.546875 " fill-opacity="1" fill-rule="evenodd"/><path fill="#000000" d="M 344.058594 263.546875 L 361.378906 317.222656 L 417.804688 317.144531 L 372.089844 350.195312 L 389.613281 403.832031 L 344.058594 370.582031 L 298.464844 403.832031 L 316.023438 350.195312 L 270.308594 317.144531 L 326.695312 317.222656 Z M 344.058594 263.546875 " fill-opacity="1" fill-rule="evenodd"/><g clip-path="url(#e07a62fa7d)"><path fill="#eea42b" d="M 1084.121094 -414.816406 L 1084.121094 1435.167969 C 1073.128906 1431.980469 1061.542969 1430.269531 1049.515625 1430.269531 C 981.066406 1430.269531 925.59375 1485.738281 925.59375 1554.191406 C 925.59375 1558.09375 925.753906 1561.914062 926.113281 1565.738281 L 858.339844 1565.738281 C 858.339844 1532.289062 831.21875 1505.210938 797.769531 1505.210938 C 764.363281 1505.210938 737.242188 1532.289062 737.242188 1565.738281 L 683.445312 1565.738281 C 683.445312 1532.289062 656.328125 1505.210938 622.917969 1505.210938 C 589.46875 1505.210938 562.390625 1532.289062 562.390625 1565.738281 L 508.554688 1565.738281 C 508.554688 1532.289062 481.476562 1505.210938 448.027344 1505.210938 C 414.578125 1505.210938 387.5 1532.289062 387.5 1565.738281 L 333.703125 1565.738281 C 333.703125 1532.289062 306.585938 1505.210938 273.136719 1505.210938 C 239.726562 1505.210938 212.609375 1532.289062 212.609375 1565.738281 L 160.203125 1565.738281 C 160.523438 1561.914062 160.722656 1558.09375 160.722656 1554.191406 C 160.722656 1485.738281 105.253906 1430.269531 36.761719 1430.269531 C 24.773438 1430.269531 13.148438 1431.980469 2.195312 1435.167969 L 2.195312 -414.816406 C 13.148438 -411.628906 24.773438 -409.917969 36.761719 -409.917969 C 105.253906 -409.917969 160.722656 -465.429688 160.722656 -533.878906 C 160.722656 -536.109375 160.683594 -538.300781 160.5625 -540.488281 L 212.609375 -540.488281 C 212.609375 -507.039062 239.726562 -479.960938 273.136719 -479.960938 C 306.585938 -479.960938 333.703125 -507.039062 333.703125 -540.488281 L 387.5 -540.488281 C 387.5 -507.039062 414.578125 -479.960938 448.027344 -479.960938 C 481.476562 -479.960938 508.554688 -507.039062 508.554688 -540.488281 L 562.390625 -540.488281 C 562.390625 -507.039062 589.46875 -479.960938 622.917969 -479.960938 C 656.328125 -479.960938 683.445312 -507.039062 683.445312 -540.488281 L 737.242188 -540.488281 C 737.242188 -507.039062 764.363281 -479.960938 797.769531 -479.960938 C 831.21875 -479.960938 858.339844 -507.039062 858.339844 -540.488281 L 925.753906 -540.488281 C 925.636719 -538.300781 925.59375 -536.109375 925.59375 -533.878906 C 925.59375 -465.429688 981.066406 -409.917969 1049.515625 -409.917969 C 1061.542969 -409.917969 1073.128906 -411.628906 1084.121094 -414.816406 Z M 1084.121094 -414.816406 " fill-opacity="1" fill-rule="evenodd"/></g><g clip-path="url(#f96044f852)"><path fill="#000000" d="M 196.519531 -394.429688 C 187.203125 -371.851562 173.066406 -351.5 155.347656 -334.496094 C 137.585938 -317.535156 116.242188 -303.957031 92.507812 -294.875 L 92.507812 1330.039062 C 114.371094 1338.402344 134.203125 1350.585938 151.085938 1365.71875 C 168.089844 1380.96875 182.066406 1399.289062 192.0625 1419.675781 L 896.566406 1419.675781 C 906.363281 1399.605469 920.019531 1381.609375 936.585938 1366.554688 C 953.03125 1351.582031 972.382812 1339.4375 993.808594 1330.957031 L 993.808594 -295.792969 C 970.550781 -304.992188 949.6875 -318.570312 932.324219 -335.375 C 915.042969 -352.136719 901.226562 -372.207031 892.066406 -394.429688 Z M 142.125 -348.316406 C 159.367188 -364.839844 172.789062 -384.949219 180.992188 -407.328125 L 183.300781 -413.660156 L 905.285156 -413.660156 L 907.597656 -407.328125 C 915.679688 -385.308594 928.78125 -365.519531 945.703125 -349.113281 C 962.628906 -332.667969 983.375 -319.722656 1006.589844 -311.441406 L 1013 -309.171875 L 1013 1344.335938 L 1006.589844 1346.605469 C 985.085938 1354.25 965.695312 1365.957031 949.488281 1380.730469 C 933.242188 1395.546875 920.179688 1413.34375 911.378906 1433.136719 L 908.832031 1438.910156 L 179.796875 1438.910156 L 177.246094 1433.136719 C 168.25 1412.945312 154.910156 1394.867188 138.304688 1379.976562 C 121.738281 1365.082031 101.867188 1353.375 79.808594 1345.847656 L 73.277344 1343.617188 L 73.277344 -308.457031 L 79.808594 -310.683594 C 103.578125 -318.769531 124.804688 -331.75 142.125 -348.316406 Z M 142.125 -348.316406 " fill-opacity="1" fill-rule="nonzero"/></g><path fill="#000000" d="M 82.914062 1181.390625 L 142.523438 1181.390625 L 142.523438 1166.019531 L 82.914062 1166.019531 Z M 188.636719 1181.390625 L 188.636719 1166.019531 L 265.488281 1166.019531 L 265.488281 1181.390625 Z M 311.601562 1181.390625 L 311.601562 1166.019531 L 388.496094 1166.019531 L 388.496094 1181.390625 Z M 434.609375 1181.390625 L 434.609375 1166.019531 L 511.460938 1166.019531 L 511.460938 1181.390625 Z M 557.574219 1181.390625 L 557.574219 1166.019531 L 634.46875 1166.019531 L 634.46875 1181.390625 Z M 680.578125 1181.390625 L 680.578125 1166.019531 L 757.433594 1166.019531 L 757.433594 1181.390625 Z M 803.546875 1181.390625 L 803.546875 1166.019531 L 880.4375 1166.019531 L 880.4375 1181.390625 Z M 926.550781 1181.390625 L 926.550781 1166.019531 L 1003.40625 1166.019531 L 1003.40625 1181.390625 Z M 926.550781 1181.390625 " fill-opacity="1" fill-rule="nonzero"/><g clip-path="url(#81acb6d47d)"><path fill="#000000" d="M 566.203125 523.996094 C 548.613281 525.265625 532.101562 531.535156 517.515625 542.539062 C 513.511719 545.578125 504.3125 554.773438 501.117188 558.96875 C 480.375 586.28125 476.5625 622.328125 491.226562 653.261719 C 493.691406 658.378906 497.539062 664.648438 501.117188 669.378906 C 504.351562 673.613281 513.511719 682.769531 517.707031 685.960938 C 537.953125 701.351562 563.585938 707.582031 588.523438 703.234375 C 602.34375 700.851562 615.8125 695.042969 627.207031 686.65625 C 632.09375 683.039062 641.136719 674.113281 644.5625 669.574219 C 654.609375 656.183594 660.652344 641.488281 662.652344 625.523438 C 663.386719 619.714844 663.347656 608.289062 662.613281 602.554688 C 660.460938 586.398438 654.609375 572.125 644.5625 558.773438 C 641.214844 554.3125 632.09375 545.308594 627.4375 541.886719 C 613.042969 531.230469 596.609375 525.1875 578.710938 523.957031 C 572.785156 523.535156 572.089844 523.535156 566.203125 523.996094 Z M 581.441406 558.003906 C 589.601562 559.238281 598.148438 562.546875 605.304688 567.277344 C 609.539062 570.125 615.929688 576.164062 619.160156 580.511719 C 624.320312 587.398438 628.246094 596.667969 629.746094 605.554688 C 630.4375 609.632812 630.554688 611.289062 630.363281 616.867188 C 630.054688 626.292969 628.589844 632.410156 624.703125 640.335938 C 616.660156 656.800781 601.726562 668.1875 583.40625 671.726562 C 577.324219 672.921875 568.472656 672.921875 562.429688 671.726562 C 550.421875 669.378906 540.605469 664.226562 532.140625 655.722656 C 524.210938 647.796875 519.054688 638.449219 516.476562 627.292969 C 515.4375 622.792969 515.089844 612.058594 515.78125 606.941406 C 517.050781 597.667969 521.054688 587.976562 526.789062 580.28125 C 529.136719 577.125 534.679688 571.625 538.027344 569.085938 C 546.34375 562.851562 555.695312 559.082031 566.394531 557.699219 C 569.433594 557.3125 577.824219 557.464844 581.441406 558.003906 Z M 581.441406 558.003906 " fill-opacity="1" fill-rule="nonzero"/></g><path fill="#000000" d="M 570.628906 586.203125 C 565.164062 588.820312 564.699219 595.863281 569.820312 599.246094 C 571.320312 600.285156 572.050781 600.515625 573.707031 600.515625 C 577.59375 600.515625 581.210938 596.898438 581.210938 593.015625 C 581.210938 587.820312 575.285156 584.011719 570.628906 586.203125 Z M 570.628906 586.203125 " fill-opacity="1" fill-rule="nonzero"/><path fill="#000000" d="M 549.265625 598.015625 C 542.492188 600.09375 541.992188 609.980469 548.496094 612.558594 C 551.113281 613.597656 555.195312 612.671875 557.042969 610.632812 C 558.042969 609.558594 559.273438 606.632812 559.273438 605.324219 C 559.273438 604.015625 558.042969 601.09375 557.042969 600.015625 C 555.308594 598.09375 551.882812 597.207031 549.265625 598.015625 Z M 549.265625 598.015625 " fill-opacity="1" fill-rule="nonzero"/><path fill="#000000" d="M 593.796875 599.132812 C 590.679688 599.976562 588.179688 603.171875 588.140625 606.289062 C 588.140625 607.824219 589.601562 611.171875 590.679688 612.136719 C 593.722656 614.828125 599.109375 614.441406 601.726562 611.328125 C 606.539062 605.59375 601.109375 597.207031 593.796875 599.132812 Z M 593.796875 599.132812 " fill-opacity="1" fill-rule="nonzero"/><path fill="#000000" d="M 571.011719 610.289062 C 569.28125 611.058594 567.316406 612.828125 566.742188 614.25 C 565.46875 617.214844 566.546875 621.445312 569.050781 623.332031 C 573.128906 626.484375 578.902344 624.714844 580.636719 619.789062 C 581.328125 617.828125 581.328125 617.328125 580.789062 615.40625 C 580.328125 613.710938 578.519531 611.480469 576.863281 610.632812 C 575.324219 609.863281 572.476562 609.671875 571.011719 610.289062 Z M 571.011719 610.289062 " fill-opacity="1" fill-rule="nonzero"/><path fill="#000000" d="M 548.113281 623.753906 C 547.113281 624.253906 545.878906 625.332031 545.226562 626.253906 C 544.226562 627.675781 544.070312 628.214844 544.070312 630.523438 C 544.070312 632.871094 544.1875 633.292969 545.265625 634.601562 C 547.34375 637.21875 548.226562 637.640625 551.34375 637.640625 C 553.808594 637.640625 554.347656 637.488281 555.734375 636.527344 C 558.734375 634.449219 559.8125 630.371094 558.234375 627.253906 C 556.15625 623.253906 551.960938 621.792969 548.113281 623.753906 Z M 548.113281 623.753906 " fill-opacity="1" fill-rule="nonzero"/><path fill="#000000" d="M 593.605469 624.023438 C 591.605469 624.601562 589.488281 627.023438 588.910156 629.292969 C 587.410156 635.679688 593.992188 640.949219 599.800781 637.949219 C 601.304688 637.21875 602.226562 636.140625 603.152344 634.179688 C 603.996094 632.410156 604.113281 630.832031 603.496094 628.945312 C 602.074219 624.714844 598.109375 622.753906 593.605469 624.023438 Z M 593.605469 624.023438 " fill-opacity="1" fill-rule="nonzero"/><path fill="#000000" d="M 570.011719 635.140625 C 567.585938 636.410156 565.816406 639.21875 565.816406 641.835938 C 565.816406 645.988281 570.628906 650.335938 574.398438 649.53125 C 581.40625 648.027344 583.253906 639.296875 577.402344 635.5625 C 575.167969 634.101562 572.246094 633.949219 570.011719 635.140625 Z M 570.011719 635.140625 " fill-opacity="1" fill-rule="nonzero"/><path fill="#000000" d="M 370.296875 530.113281 C 362.558594 530.691406 352.628906 532.804688 345.664062 535.34375 C 342.894531 536.382812 343.164062 536.269531 337.773438 538.769531 C 310.449219 551.617188 291.472656 577.78125 287.085938 608.789062 C 286.816406 610.710938 286.585938 615.828125 286.585938 620.328125 C 286.585938 628.871094 286.96875 632.523438 288.546875 639.757812 C 294.550781 666.957031 312.949219 690.230469 337.773438 701.890625 C 343.164062 704.390625 342.894531 704.273438 345.664062 705.3125 C 370.796875 714.546875 399.546875 711.929688 423.140625 698.15625 C 433.957031 691.847656 444.117188 682.34375 452.007812 671.035156 C 452.816406 669.917969 453.429688 668.917969 453.429688 668.804688 C 453.429688 668.726562 454.085938 667.648438 454.855469 666.417969 C 460.4375 657.683594 465.285156 643.335938 466.75 631.292969 C 467.402344 625.636719 467.402344 615.019531 466.75 609.363281 C 465.285156 597.324219 460.4375 582.972656 454.855469 574.242188 C 454.085938 573.007812 453.429688 571.933594 453.429688 571.855469 C 453.429688 571.738281 452.816406 570.738281 452.007812 569.625 C 444.117188 558.3125 433.957031 548.8125 423.140625 542.5 C 410.554688 535.152344 397.355469 531.113281 382.804688 530.113281 C 376.878906 529.691406 376.222656 529.691406 370.296875 530.113281 Z M 387.617188 564.507812 C 400.085938 567.125 409.09375 571.96875 417.675781 580.511719 C 425.949219 588.78125 430.914062 597.976562 433.457031 609.75 C 434.726562 615.558594 434.726562 626.984375 433.496094 632.71875 C 429.683594 650.183594 418.90625 664.417969 403.398438 672.382812 C 384.574219 682.039062 362.484375 680.808594 344.777344 669.113281 C 339.582031 665.648438 332.460938 658.609375 329.152344 653.605469 C 317.183594 635.488281 315.988281 613.328125 325.917969 594.324219 C 334.386719 578.164062 349.820312 567.160156 368.21875 564.160156 C 372.375 563.46875 383.804688 563.660156 387.617188 564.507812 Z M 387.617188 564.507812 " fill-opacity="1" fill-rule="nonzero"/><path fill="#000000" d="M 374.722656 592.398438 C 372.953125 593.167969 370.796875 595.4375 370.449219 596.898438 C 370.296875 597.4375 370.296875 598.824219 370.375 599.976562 C 370.566406 602.402344 371.953125 604.402344 374.375 605.789062 C 380.882812 609.519531 388.269531 601.210938 383.921875 595.054688 C 381.765625 591.976562 377.996094 590.898438 374.722656 592.398438 Z M 374.722656 592.398438 " fill-opacity="1" fill-rule="nonzero"/><path fill="#000000" d="M 353.285156 604.210938 C 348.78125 605.59375 346.585938 610.710938 348.667969 614.945312 C 350.550781 618.828125 354.59375 620.253906 358.632812 618.40625 C 361.484375 617.097656 362.984375 614.75 362.984375 611.480469 C 362.984375 609.558594 362.792969 608.828125 361.867188 607.324219 C 359.980469 604.402344 356.59375 603.171875 353.285156 604.210938 Z M 353.285156 604.210938 " fill-opacity="1" fill-rule="nonzero"/><path fill="#000000" d="M 397.894531 605.285156 C 393.773438 606.402344 391.351562 610.828125 392.660156 614.789062 C 393.773438 618.058594 396.585938 620.136719 399.933594 620.136719 C 403.28125 620.136719 406.089844 618.058594 407.207031 614.789062 C 407.785156 613.019531 407.746094 611.519531 407.015625 609.828125 C 405.476562 606.132812 401.78125 604.285156 397.894531 605.285156 Z M 397.894531 605.285156 " fill-opacity="1" fill-rule="nonzero"/><path fill="#000000" d="M 374.183594 616.90625 C 371.488281 618.25 370.296875 620.289062 370.296875 623.5625 C 370.296875 624.867188 370.488281 626.332031 370.71875 626.792969 C 372.257812 629.792969 376.148438 631.71875 379.035156 630.949219 C 383.535156 629.714844 386.152344 625.292969 384.730469 621.292969 C 383.113281 616.714844 378.457031 614.789062 374.183594 616.90625 Z M 374.183594 616.90625 " fill-opacity="1" fill-rule="nonzero"/><path fill="#000000" d="M 352.359375 629.714844 C 349.742188 630.910156 347.894531 633.832031 347.894531 636.679688 C 347.933594 640.140625 350.550781 643.375 353.667969 643.835938 C 357.289062 644.375 359.328125 643.605469 361.597656 640.796875 C 362.484375 639.640625 362.792969 638.871094 362.90625 637.140625 C 363.332031 631.332031 357.632812 627.332031 352.359375 629.714844 Z M 352.359375 629.714844 " fill-opacity="1" fill-rule="nonzero"/><path fill="#000000" d="M 397.046875 630.484375 C 393.160156 632.253906 391.582031 637.027344 393.582031 640.910156 C 394.390625 642.488281 396.660156 644.296875 398.46875 644.796875 C 401.703125 645.683594 405.359375 643.875 407.128906 640.527344 C 408.246094 638.410156 408.246094 636.601562 407.054688 634.101562 C 405.320312 630.332031 400.855469 628.714844 397.046875 630.484375 Z M 397.046875 630.484375 " fill-opacity="1" fill-rule="nonzero"/><path fill="#000000" d="M 373.992188 641.410156 C 369.335938 644.066406 368.566406 649.796875 372.375 653.453125 C 375.378906 656.339844 378.878906 656.53125 381.957031 653.953125 C 385 651.453125 385.769531 647.757812 383.960938 644.414062 C 381.957031 640.757812 377.457031 639.410156 373.992188 641.410156 Z M 373.992188 641.410156 " fill-opacity="1" fill-rule="nonzero"/><path fill="#000000" d="M 300.09375 714.894531 C 289.546875 716.816406 281.8125 723.703125 278.195312 734.476562 L 277.308594 737.167969 L 277.230469 849.121094 C 277.195312 919.675781 277.308594 961.996094 277.539062 963.574219 C 278.347656 969.113281 281.964844 974.039062 287.160156 976.613281 L 289.546875 977.808594 L 467.980469 977.769531 C 566.125 977.769531 650.992188 977.617188 656.609375 977.460938 L 666.808594 977.230469 L 669.503906 975.921875 C 673.277344 974.074219 676.585938 970.691406 678.472656 966.765625 L 679.894531 963.765625 L 680.011719 851.042969 L 680.089844 738.320312 L 679.28125 735.628906 C 676.507812 726.511719 669.695312 719.433594 660.035156 715.699219 L 656.804688 714.46875 L 479.949219 714.390625 C 329.421875 714.355469 302.632812 714.429688 300.09375 714.894531 Z M 365.0625 950.878906 C 365.214844 955.300781 365.214844 959.109375 365.0625 959.339844 C 364.910156 959.609375 355.363281 959.726562 335.003906 959.726562 L 305.214844 959.726562 L 305.214844 943.183594 L 334.003906 943.105469 C 349.820312 943.03125 363.214844 942.953125 363.753906 942.914062 L 364.753906 942.796875 Z M 650.066406 945.105469 C 650.066406 945.300781 650.492188 945.492188 651.03125 945.492188 C 651.570312 945.492188 651.992188 945.644531 651.992188 945.875 C 651.992188 946.070312 652.183594 946.261719 652.378906 946.261719 C 653.109375 946.261719 655.535156 948.992188 655.878906 950.222656 C 656.417969 952.109375 656.304688 955.03125 655.609375 956.339844 C 654.800781 957.878906 652.570312 960.109375 651.800781 960.109375 C 651.492188 960.109375 651.222656 960.265625 651.222656 960.496094 C 651.222656 960.726562 649.953125 960.878906 648.144531 960.878906 C 643.792969 960.878906 641.871094 959.726562 640.0625 955.996094 C 639.058594 953.878906 639.097656 951.648438 640.097656 949.609375 C 641.0625 947.683594 643.332031 945.492188 644.332031 945.492188 C 644.757812 945.492188 645.0625 945.300781 645.0625 945.105469 C 645.0625 944.875 646.140625 944.722656 647.566406 944.722656 C 648.988281 944.722656 650.066406 944.875 650.066406 945.105469 Z M 650.066406 945.105469 " fill-opacity="1" fill-rule="nonzero"/><path fill="#000000" d="M 649.566406 952.878906 C 649.722656 953.148438 649.914062 953.800781 649.992188 954.339844 C 650.066406 954.839844 650.222656 955.378906 650.335938 955.492188 C 650.492188 955.648438 650.414062 954.726562 650.066406 952.492188 C 650.066406 952.453125 649.875 952.417969 649.644531 952.417969 C 649.414062 952.417969 649.375 952.609375 649.566406 952.878906 Z M 649.566406 952.878906 " fill-opacity="1" fill-rule="nonzero"/><path fill="#000000" d="M 649.105469 955.878906 C 648.988281 956.070312 649.066406 956.261719 649.257812 956.261719 C 649.492188 956.261719 649.683594 956.070312 649.683594 955.878906 C 649.683594 955.648438 649.605469 955.492188 649.527344 955.492188 C 649.414062 955.492188 649.222656 955.648438 649.105469 955.878906 Z M 649.105469 955.878906 " fill-opacity="1" fill-rule="nonzero"/><path fill="#000000" d="M 894.082031 728.203125 C 889.925781 730.398438 876.261719 738.550781 860.019531 748.515625 C 831.808594 765.828125 830.808594 766.445312 804.597656 782.71875 L 799.210938 786.066406 L 799.210938 790.566406 C 799.210938 793.027344 799.25 821.613281 799.324219 854.082031 L 799.402344 913.097656 L 804.519531 915.90625 C 807.292969 917.445312 815.144531 921.832031 821.917969 925.601562 C 828.691406 929.410156 838.660156 934.988281 844.046875 937.988281 C 849.4375 940.992188 856.902344 945.183594 860.597656 947.222656 C 879.535156 957.839844 894.46875 965.574219 896.699219 965.996094 C 898.164062 966.304688 900.085938 965.613281 901.125 964.457031 C 901.742188 963.726562 901.78125 957.917969 901.703125 845.542969 C 901.628906 780.5625 901.472656 727.28125 901.320312 727.125 C 901.164062 726.972656 900.203125 726.78125 899.164062 726.664062 C 897.546875 726.511719 896.933594 726.703125 894.082031 728.203125 Z M 894.082031 728.203125 " fill-opacity="1" fill-rule="nonzero"/><path fill="#000000" d="M 792.628906 763.058594 C 788.125 765.828125 776.734375 773.023438 770.882812 776.832031 C 760.835938 783.371094 739.898438 796.875 737.242188 798.492188 L 734.511719 800.183594 L 734.664062 850.429688 C 734.703125 878.050781 734.78125 901.632812 734.742188 902.828125 L 734.742188 904.980469 L 738.707031 907.40625 C 742.09375 909.519531 755.449219 917.832031 789.164062 938.796875 C 793.359375 941.453125 796.824219 943.53125 796.863281 943.492188 C 796.902344 943.414062 796.863281 902.75 796.785156 853.082031 L 796.632812 762.828125 L 795.863281 762.636719 C 795.398438 762.519531 795.207031 762.25 795.359375 761.980469 C 795.515625 761.75 795.863281 761.636719 796.167969 761.75 C 796.476562 761.867188 796.707031 761.789062 796.707031 761.597656 C 796.707031 760.867188 795.628906 761.25 792.628906 763.058594 Z M 792.628906 763.058594 " fill-opacity="1" fill-rule="nonzero"/><path fill="#000000" d="M 247.597656 772.636719 L 239.78125 772.753906 L 239.707031 790.066406 L 239.589844 807.378906 L 219.421875 799.300781 C 208.339844 794.875 198.371094 790.949219 197.332031 790.605469 C 193.636719 789.375 189.902344 790.566406 188.746094 793.375 C 188.285156 794.453125 188.207031 800.683594 188.207031 829.769531 C 188.207031 852.3125 188.363281 865.394531 188.59375 866.316406 C 189.054688 867.933594 191.632812 870.433594 192.941406 870.546875 C 195.445312 870.703125 196.828125 870.28125 215.921875 863.355469 C 226.003906 859.699219 239.28125 855.082031 239.628906 855.082031 C 239.707031 855.082031 239.78125 864.394531 239.78125 875.742188 L 239.78125 896.441406 L 254.410156 896.324219 L 269.035156 896.246094 L 269.035156 772.371094 L 262.222656 772.445312 C 258.449219 772.523438 251.867188 772.601562 247.597656 772.636719 Z M 241.898438 827.152344 C 244.710938 828.34375 244.824219 831.921875 242.054688 833.386719 C 240.515625 834.15625 238.898438 833.808594 237.664062 832.308594 C 236.011719 830.347656 236.550781 828.308594 239.050781 827.230469 C 240.667969 826.5 240.359375 826.5 241.898438 827.152344 Z M 241.898438 827.152344 " fill-opacity="1" fill-rule="nonzero"/><path fill="#000000" d="M 688.554688 854.8125 L 688.554688 934.140625 L 710.03125 934.027344 C 721.808594 933.949219 731.507812 933.835938 731.546875 933.796875 C 731.625 933.71875 731.738281 844.15625 731.703125 806.878906 L 731.664062 775.445312 L 688.554688 775.445312 Z M 688.554688 854.8125 " fill-opacity="1" fill-rule="nonzero"/><path fill="#000000" d="M 263.261719 995.195312 L 263.261719 1008.585938 L 297.515625 1008.585938 C 320.109375 1008.585938 331.769531 1008.699219 331.769531 1008.96875 C 331.769531 1009.199219 334.386719 1009.355469 338.890625 1009.355469 C 343.394531 1009.355469 346.011719 1009.199219 346.011719 1008.96875 C 346.011719 1008.699219 405.976562 1008.585938 525.171875 1008.585938 L 704.296875 1008.585938 L 704.527344 982.039062 L 483.875 981.960938 L 263.261719 981.847656 Z M 263.261719 995.195312 " fill-opacity="1" fill-rule="nonzero"/><path fill="#000000" d="M 330.613281 1010.316406 L 330.613281 1017.046875 L 311.371094 1017.046875 L 311.371094 1045.480469 L 329.460938 1045.019531 L 329.382812 1067.101562 L 329.269531 1089.183594 L 328.230469 1091.375 C 327.113281 1093.800781 324.339844 1096.953125 321.957031 1098.609375 C 318.992188 1100.648438 318.53125 1100.6875 302.558594 1100.570312 L 287.738281 1100.492188 L 283.890625 1099.148438 C 281.734375 1098.417969 276.230469 1096.609375 271.574219 1095.109375 L 263.183594 1092.453125 L 242.054688 1092.453125 C 218.691406 1092.453125 219.382812 1092.375 217.152344 1094.914062 L 215.882812 1096.378906 L 215.996094 1109.1875 L 216.113281 1122.039062 L 217.421875 1123.382812 C 218.152344 1124.152344 219.34375 1124.960938 220.078125 1125.191406 C 221.078125 1125.539062 226.464844 1125.578125 240.320312 1125.347656 L 259.21875 1125.078125 L 272.691406 1121 L 286.160156 1116.882812 L 304.058594 1116.652344 C 321.148438 1116.460938 322.070312 1116.421875 324.84375 1115.574219 C 330.078125 1114.035156 333.15625 1112.226562 336.773438 1108.609375 C 340.429688 1104.957031 342.625 1101.457031 344.355469 1096.492188 L 345.433594 1093.414062 L 345.816406 1045.324219 L 354.015625 1045.210938 L 362.175781 1045.132812 L 362.175781 1016.242188 L 354.015625 1016.277344 C 349.511719 1016.316406 345.585938 1016.316406 345.355469 1016.316406 C 344.972656 1016.277344 344.855469 1014.742188 344.855469 1009.929688 L 344.855469 1003.582031 L 330.613281 1003.582031 Z M 330.613281 1010.316406 " fill-opacity="1" fill-rule="nonzero"/><g clip-path="url(#25610c3d76)"><path fill="#000000" d="M 439 1045.59375 C 438.730469 1046.289062 437.34375 1049.441406 435.957031 1052.636719 C 434.570312 1055.789062 431.683594 1062.714844 429.53125 1068.023438 C 427.375 1073.292969 423.832031 1081.949219 421.640625 1087.257812 C 419.445312 1092.53125 415.597656 1101.992188 413.058594 1108.226562 C 410.515625 1114.457031 407.324219 1122.269531 405.9375 1125.539062 C 404.550781 1128.808594 402.355469 1134.195312 401.046875 1137.464844 C 399.738281 1140.734375 397.355469 1146.46875 395.777344 1150.160156 C 394.160156 1153.855469 391.65625 1159.933594 390.195312 1163.625 C 388.734375 1167.320312 385.5 1175.207031 383.074219 1181.128906 C 377.03125 1195.75 372.761719 1206.328125 366.332031 1222.292969 C 363.367188 1229.679688 359.058594 1240.261719 356.789062 1245.761719 C 354.515625 1251.265625 349.9375 1262.496094 346.585938 1270.769531 C 343.238281 1279.003906 339.777344 1287.582031 338.851562 1289.8125 C 337.929688 1292.042969 332.308594 1305.96875 326.34375 1320.78125 C 320.414062 1335.59375 310.949219 1359.136719 305.328125 1373.105469 C 299.671875 1387.070312 292.78125 1404.382812 289.933594 1411.574219 C 287.125 1418.769531 284.621094 1425.039062 284.429688 1425.5 L 284.042969 1426.386719 L 318.53125 1426.386719 L 326.652344 1406.113281 C 334.925781 1385.53125 336.117188 1382.605469 354.863281 1336.554688 C 360.636719 1322.359375 367.140625 1306.355469 369.296875 1300.96875 C 371.453125 1295.582031 375.878906 1284.925781 379.109375 1277.308594 C 385.039062 1263.382812 386.769531 1259.1875 392.964844 1244.03125 C 394.8125 1239.492188 399.238281 1228.757812 402.78125 1220.179688 C 406.28125 1211.601562 411.671875 1198.367188 414.710938 1190.75 C 420.332031 1176.628906 429.144531 1155.125 435.109375 1140.925781 C 436.957031 1136.578125 439.613281 1130.078125 441.078125 1126.5 C 442.5 1122.882812 445.195312 1116.304688 447.042969 1111.882812 C 458.242188 1084.949219 473.597656 1047.054688 473.984375 1045.402344 L 474.253906 1044.363281 L 439.535156 1044.363281 Z M 439 1045.59375 " fill-opacity="1" fill-rule="nonzero"/></g><g clip-path="url(#4bb25f06be)"><path fill="#000000" d="M 489.265625 1220.449219 C 489.300781 1324.089844 489.417969 1410.074219 489.496094 1411.574219 L 489.609375 1414.269531 L 505.003906 1414.152344 L 520.363281 1414.074219 L 520.363281 1268.113281 C 520.363281 1187.863281 520.246094 1101.917969 520.09375 1077.140625 L 519.863281 1032.050781 L 489.109375 1032.050781 Z M 489.265625 1220.449219 " fill-opacity="1" fill-rule="nonzero"/></g><g clip-path="url(#aeed8428d9)"><path fill="#000000" d="M 536.296875 1049.210938 C 536.605469 1050.441406 542.417969 1065.023438 549.035156 1081.105469 C 551.730469 1087.644531 555.269531 1096.300781 556.925781 1100.339844 C 564.894531 1119.804688 570.089844 1132.464844 574.324219 1142.660156 C 583.445312 1164.550781 590.179688 1180.9375 595.605469 1194.59375 C 598.648438 1202.210938 602.613281 1211.984375 604.382812 1216.332031 C 608.117188 1225.410156 612.386719 1235.835938 619.855469 1254.035156 C 622.78125 1261.113281 626.398438 1269.847656 627.9375 1273.460938 C 632.632812 1284.386719 637.445312 1295.96875 642.101562 1307.507812 C 644.5625 1313.550781 648.257812 1322.707031 650.375 1327.898438 C 652.492188 1333.09375 658.152344 1347.019531 662.960938 1358.867188 C 667.773438 1370.71875 672.851562 1383.261719 674.277344 1386.761719 C 675.738281 1390.261719 680.242188 1401.457031 684.359375 1411.652344 L 691.789062 1430.234375 L 726.199219 1430.234375 L 724.082031 1424.769531 C 721.886719 1419 705.375 1377.796875 695.484375 1353.289062 C 692.289062 1345.367188 686.207031 1330.207031 681.9375 1319.628906 C 677.703125 1309.046875 672.738281 1296.660156 670.851562 1292.121094 C 669.003906 1287.582031 665.464844 1278.808594 662.960938 1272.691406 C 660.5 1266.539062 655.878906 1255.304688 652.761719 1247.6875 C 649.644531 1240.070312 643.832031 1225.796875 639.867188 1215.945312 C 635.902344 1206.097656 631.015625 1194.054688 629.015625 1189.210938 C 627.011719 1184.324219 623.742188 1176.359375 621.777344 1171.511719 C 619.816406 1166.625 616.390625 1158.316406 614.121094 1152.96875 C 611.886719 1147.621094 610.039062 1143.195312 610.039062 1143.082031 C 610.039062 1143.003906 608.039062 1138.082031 605.574219 1132.195312 C 601.6875 1122.882812 595.722656 1108.378906 585.792969 1083.988281 C 579.441406 1068.484375 574.128906 1055.789062 571.550781 1050.019531 L 570.742188 1048.210938 L 536.066406 1048.210938 Z M 536.296875 1049.210938 " fill-opacity="1" fill-rule="nonzero"/></g><path fill="#000000" d="M 436.226562 1024.089844 C 431.492188 1024.898438 426.644531 1028.707031 424.371094 1033.476562 C 422.140625 1038.246094 422.292969 1043.132812 424.949219 1048.058594 C 426.335938 1050.671875 430.144531 1054.441406 432.53125 1055.636719 L 434.457031 1056.558594 L 504.503906 1056.636719 C 580.402344 1056.714844 577.824219 1056.75 581.441406 1054.636719 C 586.910156 1051.441406 590.835938 1043.480469 589.71875 1037.785156 C 588.71875 1032.515625 584.945312 1027.628906 579.941406 1025.167969 L 577.25 1023.859375 L 507.777344 1023.820312 C 468.25 1023.78125 437.421875 1023.898438 436.226562 1024.089844 Z M 436.226562 1024.089844 " fill-opacity="1" fill-rule="nonzero"/><g clip-path="url(#47532d1c34)"><path fill="#000000" d="M 188.492188 1240.179688 L 188.492188 1368.292969 L 196.363281 1368.292969 L 196.363281 1240.179688 Z M 188.492188 1240.179688 " fill-opacity="0.996" fill-rule="nonzero"/></g><g clip-path="url(#822b0d06b5)"><path fill="#000000" d="M 218.382812 1240.179688 L 218.382812 1368.292969 L 238.566406 1368.292969 L 238.566406 1240.179688 L 218.382812 1240.179688 " fill-opacity="0.996" fill-rule="nonzero"/></g><g clip-path="url(#7e0cebaea5)"><path fill="#000000" d="M 290.476562 1240.179688 L 290.476562 1368.292969 C 297.203125 1368.292969 303.929688 1368.292969 310.660156 1368.296875 L 310.660156 1240.179688 L 290.476562 1240.179688 " fill-opacity="0.996" fill-rule="nonzero"/></g><g clip-path="url(#3f5210178a)"><path fill="#000000" d="M 362.566406 1240.179688 L 362.566406 1368.292969 L 382.75 1368.292969 L 382.75 1240.179688 L 362.566406 1240.179688 " fill-opacity="0.996" fill-rule="nonzero"/></g><g clip-path="url(#49d0dc29ca)"><path fill="#000000" d="M 434.660156 1240.179688 L 434.660156 1368.292969 L 454.84375 1368.292969 L 454.84375 1240.179688 L 434.660156 1240.179688 " fill-opacity="0.996" fill-rule="nonzero"/></g><g clip-path="url(#d22fa25d66)"><path fill="#000000" d="M 506.753906 1240.179688 L 506.753906 1368.292969 C 513.480469 1368.292969 520.210938 1368.292969 526.9375 1368.292969 C 526.9375 1325.589844 526.9375 1282.886719 526.9375 1240.179688 L 506.753906 1240.179688 " fill-opacity="0.996" fill-rule="nonzero"/></g><g clip-path="url(#ae442874f9)"><path fill="#000000" d="M 578.847656 1240.179688 L 578.847656 1368.292969 L 599.03125 1368.292969 L 599.03125 1240.179688 L 578.847656 1240.179688 " fill-opacity="0.996" fill-rule="nonzero"/></g><g clip-path="url(#ed17168cbd)"><path fill="#000000" d="M 257.355469 1240.179688 L 257.355469 1368.292969 L 271.6875 1368.292969 L 271.6875 1240.179688 Z M 257.355469 1240.179688 " fill-opacity="0.996" fill-rule="nonzero"/></g><g clip-path="url(#e2ed4c1045)"><path fill="#000000" d="M 329.449219 1240.179688 L 329.449219 1368.292969 L 343.777344 1368.292969 L 343.777344 1240.179688 Z M 329.449219 1240.179688 " fill-opacity="0.996" fill-rule="nonzero"/></g><g clip-path="url(#4b39a12da0)"><path fill="#000000" d="M 401.539062 1240.179688 L 401.539062 1368.292969 C 406.316406 1368.292969 411.09375 1368.292969 415.871094 1368.292969 C 415.871094 1325.589844 415.871094 1282.886719 415.871094 1240.179688 Z M 401.539062 1240.179688 " fill-opacity="0.996" fill-rule="nonzero"/></g><g clip-path="url(#c9ae0d2774)"><path fill="#000000" d="M 473.632812 1240.179688 L 473.632812 1368.292969 L 487.964844 1368.292969 L 487.964844 1240.179688 Z M 473.632812 1240.179688 " fill-opacity="0.996" fill-rule="nonzero"/></g><g clip-path="url(#62eb4fa4ba)"><path fill="#000000" d="M 548.652344 1240.179688 L 548.652344 1368.292969 L 557.128906 1368.292969 L 557.128906 1240.179688 Z M 548.652344 1240.179688 " fill-opacity="0.996" fill-rule="nonzero"/></g><g clip-path="url(#6c47fbaae4)"><path fill="#000000" d="M 618.222656 1240.179688 L 618.222656 1368.292969 L 631.746094 1368.292969 L 631.746094 1240.179688 Z M 618.222656 1240.179688 " fill-opacity="0.996" fill-rule="nonzero"/></g><g clip-path="url(#42c4e4d094)"><path fill="#000000" d="M 661.222656 1240.179688 L 661.222656 1368.292969 L 669.09375 1368.292969 L 669.09375 1240.179688 Z M 661.222656 1240.179688 " fill-opacity="0.996" fill-rule="nonzero"/></g><g clip-path="url(#033b3be933)"><path fill="#000000" d="M 691.113281 1240.179688 L 691.113281 1368.292969 L 711.296875 1368.292969 L 711.296875 1240.179688 L 691.113281 1240.179688 " fill-opacity="0.996" fill-rule="nonzero"/></g><g clip-path="url(#41601270e4)"><path fill="#000000" d="M 763.207031 1240.179688 L 763.207031 1368.292969 C 769.933594 1368.292969 776.664062 1368.292969 783.390625 1368.296875 L 783.390625 1240.179688 L 763.207031 1240.179688 " fill-opacity="0.996" fill-rule="nonzero"/></g><g clip-path="url(#c433642368)"><path fill="#000000" d="M 835.300781 1240.179688 L 835.300781 1368.292969 L 855.484375 1368.292969 L 855.484375 1240.179688 L 835.300781 1240.179688 " fill-opacity="0.996" fill-rule="nonzero"/></g><g clip-path="url(#2e2e58d966)"><path fill="#000000" d="M 730.085938 1240.179688 L 730.085938 1368.292969 L 744.417969 1368.292969 L 744.417969 1240.179688 Z M 730.085938 1240.179688 " fill-opacity="0.996" fill-rule="nonzero"/></g><g clip-path="url(#730163004a)"><path fill="#000000" d="M 802.179688 1240.179688 L 802.179688 1368.292969 L 816.507812 1368.292969 L 816.507812 1240.179688 Z M 802.179688 1240.179688 " fill-opacity="0.996" fill-rule="nonzero"/></g><g clip-path="url(#f473998098)"><path fill="#000000" d="M 874.273438 1240.179688 L 874.273438 1368.292969 C 879.050781 1368.292969 883.824219 1368.292969 888.601562 1368.292969 C 888.601562 1325.589844 888.601562 1282.886719 888.601562 1240.179688 Z M 874.273438 1240.179688 " fill-opacity="0.996" fill-rule="nonzero"/></g></g></g></g></svg>