<svg xmlns="http://www.w3.org/2000/svg" version="1.0" width="400.000000pt" height="400.000000pt" viewBox="-3 -3 406 406" preserveAspectRatio="xMidYMid meet"><g id="deeditor_bgCarrier" stroke-width="0">
    <rect id="dee_c_e" x="-3" y="-3" width="406" height="406" rx="0" fill="#ffffff" strokewidth="0"/>
  </g>

<g transform="translate(0.000000,400.000000) scale(0.100000,-0.100000)" fill="#000000" stroke="none">
<path d="M6 3975 c-3 -13 -3 -31 0 -39 7 -18 24 -22 24 -5 0 5 5 7 11 3 8 -4 2 -12 -15 -21 l-26 -14 0 -1949 0 -1950 2000 0 2000 0 0 2000 0 2000 -1960 0 c-1300 0 -1960 -3 -1960 -10 0 -5 7 -10 15 -10 20 0 19 -29 0 -37 -20 -7 -28 1 -28 30 0 19 -5 24 -27 25 -22 0 -30 -5 -34 -23z m842 -93 c2 -7 -3 -12 -12 -12 -9 0 -16 7 -16 16 0 17 22 14 28 -4z m-808 -122 c0 -5 -7 -10 -16 -10 -8 0 -12 5 -9 10 3 6 10 10 16 10 5 0 9 -4 9 -10z m485 -10 c-3 -5 -10 -10 -16 -10 -5 0 -9 5 -9 10 0 6 7 10 16 10 8 0 12 -4 9 -10z m553 -71 c-2 -6 -8 -10 -13 -10 -5 0 -11 4 -13 10 -2 6 4 11 13 11 9 0 15 -5 13 -11z m-61 -25 c8 -21 -13 -42 -28 -27 -13 13 -5 43 11 43 6 0 13 -7 17 -16z m-863 -45 c-3 -5 -10 -7 -15 -3 -5 3 -7 10 -3 15 3 5 10 7 15 3 5 -3 7 -10 3 -15z m1994 -434 c23 -9 58 -38 84 -68 35 -42 45 -60 46 -95 2 -35 -21 -112 -34 -112 -2 0 -13 9 -25 21 -20 20 -22 20 -40 3 -16 -15 -19 -15 -19 -2 0 20 -31 33 -41 17 -17 -28 12 -61 93 -106 51 -28 89 -76 108 -137 27 -86 -30 -200 -119 -241 l-41 -18 0 -139 c0 -115 -2 -138 -15 -138 -12 0 -13 -9 -8 -47 3 -27 9 -50 12 -53 6 -5 9 -19 16 -81 2 -20 5 -41 6 -45 4 -25 -4 -34 -31 -34 -26 0 -30 4 -30 28 0 28 -48 164 -72 201 -7 12 -23 21 -35 21 -12 0 -25 6 -30 13 -4 6 -10 61 -13 121 -3 72 -9 111 -17 113 -18 6 -64 -92 -62 -130 1 -17 -12 -68 -30 -112 -18 -44 -36 -98 -40 -119 l-6 -40 -73 -3 c-74 -3 -93 8 -44 25 53 20 60 32 77 140 9 57 14 109 12 116 -3 8 3 28 14 45 19 32 27 125 11 135 -5 3 -7 20 -5 38 4 26 2 30 -7 18 -9 -12 -10 -8 -6 20 3 19 13 92 22 162 l17 127 -24 20 c-22 18 -24 28 -27 119 l-4 101 -46 15 c-25 9 -58 16 -73 16 -35 0 -42 11 -29 44 11 29 31 34 50 11 19 -23 100 -65 126 -65 12 0 29 -9 37 -20 7 -11 44 -33 80 -51 54 -25 70 -29 82 -19 9 8 13 21 9 35 -9 36 11 63 41 58 29 -6 31 -1 9 21 -14 15 -13 17 7 24 14 6 18 11 11 16 -6 4 -20 2 -31 -4 -44 -23 -43 3 2 30 39 24 55 25 105 5z m772 -185 c0 -5 -5 -10 -11 -10 -5 0 -7 5 -4 10 3 6 8 10 11 10 2 0 4 -4 4 -10z m-2320 -149 c0 -6 -4 -13 -10 -16 -5 -3 -10 1 -10 9 0 9 5 16 10 16 6 0 10 -4 10 -9z m-360 -691 c0 -5 -4 -10 -10 -10 -5 0 -10 5 -10 10 0 6 5 10 10 10 6 0 10 -4 10 -10z m360 -80 c0 -5 -5 -10 -11 -10 -5 0 -7 5 -4 10 3 6 8 10 11 10 2 0 4 -4 4 -10z m317 -300 c76 -34 108 -113 74 -183 -28 -59 -83 -88 -172 -95 -77 -5 -77 -6 -63 -94 5 -31 11 -38 36 -43 55 -13 24 -28 -57 -28 -77 0 -110 14 -65 28 20 6 20 12 18 203 -3 196 -3 197 -25 200 -13 2 -23 10 -23 18 0 24 222 19 277 -6z m353 -47 c59 -162 137 -341 158 -362 13 -13 22 -24 20 -26 -2 -1 -31 -5 -65 -8 -65 -5 -88 5 -58 27 15 11 12 22 -29 128 -25 65 -52 130 -60 145 -13 26 -15 27 -22 8 -4 -11 -27 -71 -51 -133 -24 -62 -43 -120 -43 -128 0 -8 11 -19 25 -24 46 -17 27 -30 -45 -30 -38 0 -70 3 -70 7 0 4 11 18 24 32 22 23 58 106 150 349 15 39 32 72 36 72 5 0 18 -26 30 -57z m981 -152 c42 -108 82 -195 96 -209 13 -13 23 -25 21 -27 -7 -7 -127 -9 -134 -2 -4 4 1 13 10 20 17 13 15 22 -37 153 -30 76 -58 138 -63 137 -9 -2 -104 -247 -104 -269 0 -8 11 -19 25 -24 46 -17 27 -30 -45 -30 -38 0 -70 3 -70 7 0 4 11 18 24 32 22 23 71 137 151 349 23 61 30 71 40 60 7 -7 46 -96 86 -197z m509 197 l71 -12 -6 -31 c-11 -51 -16 -65 -25 -65 -5 0 -10 10 -12 23 -4 31 -61 57 -125 57 -44 0 -58 -5 -88 -31 -45 -40 -65 -87 -65 -156 0 -157 122 -242 253 -176 18 9 27 21 27 38 0 32 18 32 25 0 16 -77 19 -71 -36 -83 -172 -40 -308 28 -338 168 -31 145 72 272 226 279 13 1 54 -4 93 -11z m-1060 -8 c0 -6 -11 -15 -25 -20 l-25 -10 0 -185 0 -186 88 3 c87 3 87 3 90 31 4 30 32 38 32 8 0 -10 3 -33 6 -50 l7 -32 -164 4 c-100 3 -165 9 -167 15 -2 6 6 13 17 17 20 6 21 13 21 196 0 182 -1 189 -20 189 -11 0 -20 7 -20 15 0 12 16 15 80 15 48 0 80 -4 80 -10z m1584 -17 c-12 -56 -16 -63 -30 -63 -11 0 -13 6 -9 19 9 29 -22 41 -103 41 l-69 0 -7 -46 c-3 -26 -6 -64 -6 -85 l0 -39 70 0 c63 0 74 3 95 25 13 15 25 22 27 18 3 -4 2 -37 -1 -73 -6 -62 -7 -64 -20 -40 -20 36 -29 40 -103 40 l-68 0 0 -67 c0 -115 -1 -113 96 -113 82 0 83 0 86 27 4 39 25 40 33 1 3 -18 9 -41 12 -51 4 -17 -5 -18 -161 -15 -91 3 -168 7 -171 10 -3 3 6 13 20 22 l25 16 0 180 c0 169 -1 180 -20 190 -45 24 -16 30 145 30 l165 0 -6 -27z m-2156 -528 c7 -6 -10 -65 -18 -65 -4 0 -10 8 -13 19 -2 10 -20 24 -40 30 -29 10 -42 9 -72 -3 -80 -34 -88 -178 -13 -230 40 -29 128 -15 128 19 0 15 20 22 20 8 0 -5 3 -18 6 -29 5 -19 0 -23 -44 -34 -170 -40 -283 142 -159 258 34 32 73 42 142 35 33 -3 62 -7 63 -8z m205 8 c4 -3 -1 -12 -11 -19 -14 -10 -18 -32 -20 -127 -4 -110 -3 -115 19 -131 23 -15 21 -16 -39 -16 -60 0 -83 12 -42 23 19 5 20 14 20 125 0 116 -1 121 -22 129 -19 6 -14 9 27 14 28 3 53 7 56 7 3 1 9 -1 12 -5z m355 -118 c2 72 0 92 -13 101 -24 18 -18 24 25 24 22 0 40 -2 40 -3 0 -2 -7 -19 -16 -36 -13 -27 -16 -55 -12 -147 3 -63 3 -114 0 -114 -3 0 -29 24 -56 53 -28 28 -81 81 -118 117 l-68 64 0 -101 c0 -101 0 -103 27 -117 27 -14 27 -14 -25 -17 -53 -4 -65 3 -36 19 13 7 15 27 12 126 -3 105 -5 119 -23 129 -19 11 -18 12 10 17 28 6 39 -2 140 -99 l110 -106 3 90z m337 114 c8 -9 -5 -59 -16 -59 -5 0 -9 9 -9 20 0 18 -7 20 -60 20 l-60 0 0 -55 0 -55 50 0 c36 0 52 4 56 15 4 8 10 15 15 15 12 0 11 -77 -1 -85 -5 -3 -10 0 -10 8 0 19 -22 27 -71 27 l-39 0 0 -60 0 -60 60 0 c53 0 60 2 60 20 0 11 4 20 9 20 10 0 22 -52 14 -60 -7 -7 -213 -6 -213 1 0 4 7 12 15 19 12 10 15 38 15 130 0 96 -3 119 -15 124 -8 3 -15 9 -15 13 0 9 205 11 215 2z m710 -124 c26 -66 56 -130 68 -142 l20 -23 -52 0 c-45 0 -52 2 -42 14 9 11 4 35 -25 111 l-38 97 -38 -98 c-21 -53 -37 -98 -35 -99 1 -1 11 -7 22 -13 17 -10 13 -11 -27 -12 l-47 0 19 33 c16 27 41 88 102 246 5 14 12 20 17 15 5 -5 30 -63 56 -129z m276 129 c31 -5 36 -10 36 -35 0 -16 -2 -29 -3 -29 -2 0 -14 11 -28 25 -43 43 -106 25 -106 -30 0 -19 13 -31 62 -57 99 -52 114 -122 36 -161 -46 -23 -138 -15 -138 12 0 9 -3 26 -6 39 -4 12 -2 22 4 22 5 0 12 -9 15 -20 3 -11 22 -27 42 -35 50 -21 90 -3 90 40 0 25 -8 34 -60 63 -33 18 -66 40 -72 49 -21 27 -15 63 16 94 30 30 48 33 112 23z m-774 -92 c70 -144 63 -143 124 -19 l54 107 40 -1 c36 0 38 -1 18 -11 -22 -11 -23 -17 -23 -124 0 -104 2 -115 22 -134 l22 -20 -70 0 c-67 1 -68 1 -41 16 27 14 27 16 27 112 l0 97 -22 -35 c-12 -19 -38 -71 -58 -114 l-37 -79 -53 109 c-60 122 -67 121 -69 -7 -1 -58 2 -69 22 -82 21 -15 19 -16 -38 -16 -50 0 -56 2 -38 11 27 13 36 60 31 173 -3 73 -5 80 -28 92 -23 12 -22 13 25 12 l50 0 42 -87z m-1001 -259 c-10 -10 -19 5 -10 18 6 11 8 11 12 0 2 -7 1 -15 -2 -18z m44 17 c0 -5 -4 -10 -10 -10 -5 0 -10 5 -10 10 0 6 5 10 10 10 6 0 10 -4 10 -10z m1315 -10 c3 -5 1 -10 -4 -10 -6 0 -11 5 -11 10 0 6 2 10 4 10 3 0 8 -4 11 -10z m-625 -764 c0 -3 -4 -8 -10 -11 -5 -3 -10 -1 -10 4 0 6 5 11 10 11 6 0 10 -2 10 -4z" fill="#000000"/>
<path d="M1817 3023 c-11 -11 -7 -66 6 -88 12 -20 24 -23 112 -26 27 0 58 -5 67 -10 10 -6 19 -5 23 1 3 5 2 10 -4 10 -5 0 -16 12 -23 26 -9 18 -37 36 -91 60 -87 38 -81 36 -90 27z" fill="#000000"/>
<path d="M2120 2640 c0 -5 5 -10 10 -10 6 0 10 5 10 10 0 6 -4 10 -10 10 -5 0 -10 -4 -10 -10z" fill="#000000"/>
<path d="M756 1744 c-3 -9 -6 -60 -6 -115 l0 -99 60 0 c52 0 64 4 92 29 28 25 33 36 33 74 0 83 -44 127 -128 127 -32 0 -47 -5 -51 -16z" fill="#000000"/>
</g>
</svg>