<svg xmlns="http://www.w3.org/2000/svg" width="111" height="31" viewBox="0 0 111 31">
    <defs>
        <path id="a" d="M.014.031h123.749v39.955H.014z"/>
    </defs>
    <g fill="none" fill-rule="evenodd">
        <path fill="#FFFFFE" d="M40.623 8.462c1.05 0 1.655-.51 1.655-1.323v-.032c0-.876-.636-1.322-1.671-1.322h-2.023v2.677h2.039zm-5.127-5.353h5.27c1.704 0 2.882.446 3.63 1.21.653.638.987 1.498.987 2.597v.032c0 1.704-.907 2.836-2.292 3.425l2.658 3.887h-3.566l-2.245-3.377h-1.354v3.377h-3.088V3.11zM46.943 3.109h8.964v2.628H50v1.689h5.35v2.437H50v1.769h5.987v2.628h-9.044V3.11M64.122 9.863l-1.242-3.17-1.257 3.17h2.5zM61.416 3.03h2.977l4.745 11.231h-3.312l-.812-1.991h-4.299l-.796 1.991H56.67L61.416 3.03zM74.567 11.52c1.847 0 3.073-1.02 3.073-2.82V8.67c0-1.784-1.226-2.82-3.073-2.82h-1.258v5.671h1.258zM70.22 3.11h4.299c3.98 0 6.29 2.294 6.29 5.512v.031c0 3.219-2.341 5.608-6.354 5.608H70.22V3.11zM82.464 14.26h3.104V3.11h-3.104zM87.606 3.109h2.882l4.585 5.894V3.11h3.058V14.26h-2.707l-4.76-6.117v6.117h-3.058V3.11M99.722 8.716v-.032c0-3.25 2.548-5.798 6.003-5.798 1.958 0 3.343.605 4.521 1.624l-1.815 2.183c-.796-.669-1.592-1.051-2.69-1.051-1.608 0-2.85 1.354-2.85 3.059v.031c0 1.8 1.257 3.09 3.025 3.09.748 0 1.321-.158 1.783-.461v-1.354h-2.197V7.744h5.127v5.019a7.535 7.535 0 0 1-4.84 1.72c-3.471 0-6.067-2.39-6.067-5.767M35.217 22.784v-.031c0-3.25 2.5-5.799 5.875-5.799 2.277 0 3.742.956 4.73 2.326l-2.325 1.8c-.637-.797-1.37-1.306-2.436-1.306-1.56 0-2.66 1.322-2.66 2.947v.032c0 1.673 1.1 2.979 2.66 2.979 1.162 0 1.847-.542 2.515-1.354l2.325 1.656c-1.05 1.45-2.468 2.518-4.936 2.518-3.184 0-5.748-2.438-5.748-5.768M47.286 28.329h3.104V17.177h-3.104zM52.428 17.177h2.882l4.586 5.895v-5.895h3.057v11.152h-2.707l-4.76-6.118v6.118h-3.058V17.177M64.927 17.177h8.963v2.629h-5.907v1.688h5.35v2.438h-5.35V25.7h5.987v2.629h-9.043V17.177M75.546 17.177h3.264l2.659 4.317 2.659-4.317h3.264v11.152h-3.073v-6.404l-2.85 4.364h-.064l-2.834-4.333v6.373h-3.025V17.177M95.925 23.932l-1.242-3.17-1.257 3.17h2.5zm-2.706-6.835h2.977l4.745 11.232h-3.312l-.812-1.992h-4.299l-.796 1.992h-3.248l4.745-11.232zM101.02 26.672l1.72-2.055c1.098.876 2.324 1.338 3.614 1.338.828 0 1.273-.287 1.273-.765v-.032c0-.461-.366-.717-1.879-1.067-2.372-.542-4.203-1.21-4.203-3.505v-.032c0-2.07 1.64-3.568 4.315-3.568 1.895 0 3.375.51 4.586 1.481L108.9 20.65c-1.019-.717-2.134-1.1-3.12-1.1-.749 0-1.115.32-1.115.718v.031c0 .51.382.733 1.926 1.084 2.564.557 4.156 1.386 4.156 3.473v.032c0 2.278-1.8 3.632-4.506 3.632-1.974 0-3.853-.622-5.222-1.848M12.955.812l-.003.004c-.83.578-1.92 1.577-2.496 2.12-.04.038-.113.112-.113.112-.048.072-1.331 3.392-1.508 3.854l-8.28 3.286-.498.212.293 1.75.798-.325c0-.002 5.271-2.113 6.845-2.743L.206 29.262c-.01.036-.101.612-.101.612l.016.2c.046.234.148.734.665.806a.749.749 0 0 0 .779-.444c.039-.075 7.324-15.382 7.602-16.005l1.029-2.224 2.193-4.778c.056-.017.11-.036.11-.036 1.999-.67 6.557-2.201 8.685-2.213-1.04 1.55-4.937 5.66-7.936 8.367a84.83 84.83 0 0 1-.424.394c-1.52 1.372-2.559 2.475-3.085 3.277-.27.411-.407.75-.417 1.033l-.024.19c0 .353.18.713.485.966.26.228 2.805 3.478 3.02 3.791.204.262.797.93 1.738 1.482a16.067 16.067 0 0 0 4.554 1.793c2 .444 3.258.671 4.341.785 1.367.143 5.927.26 7.904.167l.982-.045-.373-.906c-.002-.001-6.305-15.182-6.305-15.182l-.367-.937-.72.52c-1.05.755-4.45 3.18-5.688 3.915 0 0-.674.378-1.41.788a92794.204 92794.204 0 0 0 5.972-5.157c1.464-1.261 4.512-3.885 5.182-5.83.014-.06.1-.692.1-.692 0-.472-.154-.868-.459-1.176-.899-.92-2.805-.89-7.281.11-.037.01-5.892 1.846-7.57 2.372.97-2.142 1.538-3.452 1.659-3.824l.094-.499a.763.763 0 0 0-.314-.648c-.508-.377-1.026-.018-1.887.578"/>
        <path fill="#1A1919" d="M25.002 11.549l-.043-.114s-4.283 3.087-5.74 3.95c-1.45.861-4.464 2.586-5.35 2.699l-.058.027.095-.09-.208-.23c.022-.024.247-.276.465-.488l.198.22.454-.394-.19-.206.501-.487.125.135s6.322-5.419 7.23-6.236c.906-.816 4.784-3.943 5.477-5.97.51-2.08-2.165-1.903-6.838-.857a217.122 217.122 0 0 0-8.995 2.845c1.131-2.483 2.131-4.714 2.282-5.183.198-.62-.06-.483-1.058.214-.999.694-2.45 2.086-2.45 2.086L9.368 7.43C6.18 8.694.975 10.76.827 10.822l.062.364s5.078-2.062 8.312-3.323L.86 29.49s-.093.304-.061.455c.029.152.06.363.15.18.092-.18 7.345-15.43 7.59-15.973.133-.303 1.815-3.927 3.35-7.282 2-.667 7.371-2.529 9.622-2.37 0 0 .937.06.272 1.026-1.056 1.605-5.095 5.842-8.073 8.534l-.42.391.23.247c-.117.121-.28.279-.465.466l-.26-.29c-.135.124-.282.262-.437.41l.28.31c-.157.16-.314.326-.466.49l-.292-.329c-.132.134-.261.27-.394.41l.307.343c-.156.17-.293.327-.42.473l-.309-.348c-.122.141-.239.28-.353.425l.308.343c-.125.15-.233.289-.336.423l-.29-.34c-.075.104-.144.208-.208.313l.291.325a1.208 1.208 0 0 0-.179.574c-.149-.158-.283-.365-.283-.365-.07.117-.004.368.21.548.358.287.978.35 2.367-.039 0 0 .212-.06.334.06 0 0 .24.274.262.35.022.08.054.184-.084.207-.133.021-1.055.198-1.92.08-.342-.086-.516-.166-.693-.318 0 0 .058.118.252.262.2.142.367.3.88.385.54.087 1.624-.036 1.691-.045.07-.012.187-.043.284.09.137.185 2.043 2.938 2.156 3.178.11.238.205.374-.15.271-.352-.103-.692-.137-1.544-.578-.847-.445-1.235-.739-1.302-.794 0 0 .328.364.465.462.138.105 1.327 1.036 2.802 1.398 0 0 .306.08.374.203.07.126.25.478.25.478s.134.24-.15.126c-.283-.114-2.321-.91-3.027-1.829 0 0-.158-.123-.088 0 0 0 .543.692 1.507 1.26a15.423 15.423 0 0 0 4.354 1.713c1.836.41 3.131.654 4.265.773 1.298.135 5.826.257 7.799.166 0 0-6.21-14.963-6.306-15.189zm.394 3.54c.29.046.38.439.38.439l2.829 6.641c.044.105.27.453.208.74-.06.287-.194.273-.528.348-.331.076-3.099.47-3.37.502-.273.028-.894.134-1.104.012-.213-.12-.453-.649-.453-.649l-2.482-4.993s-.15-.212-.196-.468c-.044-.258.33-.348.33-.348s3.418-1.815 3.573-1.907c.15-.09.527-.362.813-.317zm-2.57-1.334c.388-.26.757-.506 1.06-.718 0 0 .147-.104.299-.093.152.01.235.068.297.179.058.108.31.537.31.537s.089.149.05.257c0 0-.005.157-.16.279a9.298 9.298 0 0 1-1.202.798s-.132.087-.26.059a.488.488 0 0 1-.198-.13s-.278-.379-.33-.508c-.023-.066-.076-.149-.068-.329.01-.177.202-.331.202-.331zm-2.657 1.794c.039-.095.287-.26.287-.26.057-.03.402-.25.588-.366 0 0 .217-.137.337-.13.19.008.285.166.285.166l.264.42s.138.16.079.329a.424.424 0 0 1-.17.227c-.248.15-.53.311-.82.47 0 0-.103.049-.255.049-.15 0-.328-.22-.328-.22l-.216-.377s-.11-.17-.051-.308zm-1.828.945l.516-.278c.088-.041.157-.08.257-.09.1-.012.25.12.289.17.04.05.229.348.229.348s.11.18.089.287c-.02.11-.108.158-.108.158s-.468.23-.557.28a.635.635 0 0 1-.33.09c-.118-.01-.217-.14-.217-.14s-.228-.277-.258-.349c-.032-.068-.09-.129-.1-.257-.011-.13.19-.219.19-.219zm-1.82.965c.02-.08.3-.209.458-.29a.718.718 0 0 1 .367-.099c.118 0 .28.26.328.339.05.079.24.29.189.408-.05.118-.16.157-.16.157-.137.082-.454.23-.606.221-.148-.011-.23-.12-.23-.12l-.306-.437s-.06-.099-.04-.179zm-1.231.5l.255-.116s-.028-.026.147-.073a.32.32 0 0 1 .283.056s.209.28.337.468c.13.189-.049.26-.049.26s-.16.068-.39.128c-.225.06-.314-.09-.314-.09s-.22-.258-.33-.418c-.112-.159.06-.216.06-.216zm-.897.344c.11-.04.18-.048.26-.04.078.01.126.093.126.093s.26.326.31.383c.048.062.028.162-.02.192s-.307.129-.398.139c-.087.01-.2-.078-.2-.078l-.226-.31s-.092-.11-.107-.2c-.021-.089.146-.138.255-.179zm2.717-6.39l1.03 1.117-.3.256-1.03-1.117.3-.256zm-1.3 1.121l1.088 1.207-.406.35-1.086-1.212.405-.345zm-1.102 1.102l1.088 1.207-.452.394-1.088-1.206.452-.395zm-.956.816l1.112 1.199-.483.498-1.103-1.236c.181-.18.345-.34.474-.46zm-2.947 3.972c-.052-.08-.204-.335-.104-.552l.476.534c-.148.02-.27.025-.372.018zm.77-.084c-.004.004-.008.004-.015.004l-.728-.848c.146-.182.24-.32.333-.428l1.005 1.124a9.199 9.199 0 0 1-.595.148zm1.123-.378l-1.152-1.288c.124-.122.272-.279.44-.446l1.12 1.251c-.121.136-.306.347-.408.483zm-.314-2.144l.47-.482 1.113 1.243-.47.485-1.113-1.246zm1.478 2.983c-.195.049-.303-.091-.303-.091l-.268-.34c-.172-.188.018-.24.018-.24l.215-.046c.212-.046.264.098.264.098s.23.318.267.427c.04.11 0 .14-.193.192zm2.78 4.288c-.27-.06-.363-.24-.482-.422-.123-.18-2.027-3.177-2.027-3.177s-.212-.212.09-.303c.302-.092 1.38-.317 1.38-.317s.286-.181.647.574l1.965 3.252s.393.538.26.607c-.123.058-1.558-.152-1.832-.214zm1.042 1.407c-.078.02-.22-.009-.365-.07-.153-.06-.231-.248-.231-.248s-.176-.278-.268-.467c-.092-.189.245-.074.245-.074s.122.024.22.051c.102.027.142.13.142.13s.219.42.247.5c.029.08.088.16.01.178zm1.224.329c-.03.028-.161-.003-.161-.003s-.19-.036-.33-.081c-.144-.047-.246-.254-.246-.254l-.228-.417s-.054-.12-.051-.18c.005-.092.17-.047.17-.047s.098.008.299.051a.583.583 0 0 1 .315.235s.12.26.181.377c.061.12.118.27.051.319zm1.478.25c-.058.06-.19.037-.19.037s-.138-.017-.384-.069c-.245-.05-.338-.268-.338-.268s-.24-.416-.298-.626c-.053-.18.176-.113.176-.113l.36.04c.111.006.15.01.243.073a.458.458 0 0 1 .143.168s.17.347.2.399c.03.048.149.298.088.358zm1.72.235c-.07.082-.21.067-.21.067s-.15-.027-.485-.07c-.337-.045-.468-.392-.468-.392l-.179-.437c-.04-.1-.068-.189-.018-.27.05-.079.406-.05.527-.038.117.01.258.048.437.147.179.1.257.447.299.538.039.091.168.376.097.455zm.101-1.872s-1.784.004-2.421-.016c-.526-.014-.723-.42-.723-.42l-2.343-4.01c-.332-.424.09-.5.09-.5s.83-.287 1.15-.395c.316-.105 1.21-.468 1.482-.513.164-.027.32.348.32.348l2.627 5.007c.317.604-.182.5-.182.5zM24.194 26c-.099.121-.192.096-.192.096s-.197-.005-.435-.028c-.237-.023-.346-.048-.467-.136-.12-.089-.237-.248-.237-.248l-.27-.678c0-.05-.037-.098 0-.177.042-.08.15-.091.15-.091s.317-.01.449 0c.127.012.356-.02.584.14.23.158.28.477.339.618.06.138.178.385.08.504zm2.249.146c-.32-.005-.71-.005-.71-.005s-.293.025-.494-.2c-.241-.264-.358-.736-.387-.824-.032-.09-.041-.269.02-.328.056-.06.117-.091.245-.086.133.005.833-.045.833-.045s.262.01.348.112c.09.097.128.146.18.247 0 0 .201.446.252.706.05.258.028.43-.287.423zm3.107-.064s-.757.059-.974.051c-.217-.005-.387-.021-.536-.113-.15-.088-.177-.229-.177-.229l-.308-.883c0-.03-.06-.149.007-.29.071-.14.262-.167.262-.167s.762-.079 1.055-.104a.675.675 0 0 1 .512.14c.14.102.17.25.17.25s.148.468.191.596c.036.13.176.362.05.559-.132.199-.252.19-.252.19z"/>
    </g>
</svg>
